# xmcd CD database file
#
# Track frame offsets:
#	150
#	8135
#	23095
#	33692
#	47156
#	60710
#	75296
#	88387
#	108454
#	122287
#	135178
#	148483
#	160754
#	174717
#	186287
#	198737
#	212417
#	225614
#
# Disc length: 3180 seconds
#
# Revision: 0
# Processed by: cddbd v1.5.1PL0 Copyright (c) Steve Scherf et al.
# Submitted via: CDex 1.51
#
DISCID=f40c6a12
DTITLE=Mel Torme - The Very Best of Mel Torme [CDOne)
DYEAR=2003
DGENRE=Jazz
TTITLE0=Love Me Or Leave Me
TTITLE1=Bewitched, Bothered And Bewildered
TTITLE2=Lullaby Of The Leaves
TTITLE3=What Is This Thing Called Love ?
TTITLE4=Little White Lies
TTITLE5=Get Out Of Town
TTITLE6=A Little Kiss Each Morning
TTITLE7=I Cover The Waterfront
TTITLE8=A Cottage For Sale
TTITLE9=The Best Things In Life Are Free
TTITLE10=Gone With The Wind
TTITLE11=But Beautiful
TTITLE12=Try A Little Tenderness
TTITLE13=My Rosemarie (with The Meltones)
TTITLE14=The Anything Can Happen Mambo (with the Meltones)
TTITLE15=You've Laughed At Me For The Last Time (with The Meltones)
TTITLE16=Bless You (For The Good That's In You) (with Peggy Lee)
TTITLE17=The Old Master Painter (with Peggy Lee)
EXTD=YEAR: 2003
EXTT0=
EXTT1=
EXTT2=
EXTT3=
EXTT4=
EXTT5=
EXTT6=
EXTT7=
EXTT8=
EXTT9=
EXTT10=
EXTT11=
EXTT12=
EXTT13=
EXTT14=
EXTT15=
EXTT16=
EXTT17=
PLAYORDER=
